<svg width="32" height="32" viewBox="0 0 32 32" fill="none" xmlns="http://www.w3.org/2000/svg">
<g clip-path="url(#clip0_1_1501)">
<path d="M10.8571 4H21.1429V1.5C21.1429 0.671875 21.9071 0 22.8571 0C23.8071 0 24.5714 0.671875 24.5714 1.5V4H27.4286C29.95 4 32 5.79063 32 8V28C32 30.2062 29.95 32 27.4286 32H4.57143C2.04643 32 0 30.2062 0 28V8C0 5.79063 2.04643 4 4.57143 4H7.42857V1.5C7.42857 0.671875 8.19286 0 9.14286 0C10.0929 0 10.8571 0.671875 10.8571 1.5V4ZM3.42857 28C3.42857 28.55 3.94 29 4.57143 29H27.4286C28.0571 29 28.5714 28.55 28.5714 28V12H3.42857V28Z" fill="white"/>
</g>
<defs>
<clipPath id="clip0_1_1501">
<rect width="32" height="32" fill="white"/>
</clipPath>
</defs>
</svg>
