<svg width="16" height="14" viewBox="0 0 16 14" fill="none" xmlns="http://www.w3.org/2000/svg">
<path d="M8.00004 0C5.75559 0 3.95837 1.15 2.65004 2.51875C1.35004 3.875 0.480594 5.5 0.0694824 6.61562C-0.0221842 6.8625 -0.0221842 7.1375 0.0694824 7.38437C0.480594 8.5 1.35004 10.125 2.65004 11.4812C3.95837 12.85 5.75559 14 8.00004 14C10.2445 14 12.0417 12.85 13.35 11.4812C14.65 10.1219 15.5195 8.5 15.9334 7.38437C16.025 7.1375 16.025 6.8625 15.9334 6.61562C15.5195 5.5 14.65 3.875 13.35 2.51875C12.0417 1.15 10.2445 0 8.00004 0ZM12 7C12 9.48438 10.2084 11.5 8.00004 11.5C5.7917 11.5 4.00004 9.48438 4.00004 7C4.00004 4.51562 5.7917 2.5 8.00004 2.5C10.2084 2.5 12 4.51562 12 7ZM8.00004 5C8.00004 6.10313 7.20282 7 6.22226 7C5.90282 7 5.60282 6.90625 5.34448 6.7375C5.33893 6.825 5.33337 6.90938 5.33337 7C5.33337 8.65625 6.52782 10 8.00004 10C9.47226 10 10.6667 8.65625 10.6667 7C10.6667 5.34375 9.47226 4 8.00004 4C7.92226 4 7.84448 4.00312 7.76671 4.0125C7.91393 4.30312 8.00004 4.64062 8.00004 5Z" fill="#001AFF"/>
</svg>
