<svg width="32" height="32" viewBox="0 0 32 32" fill="none" xmlns="http://www.w3.org/2000/svg">
<g clip-path="url(#clip0_1_1351)">
<path d="M30.0628 1.93752C27.8191 -0.299976 24.1816 -0.299976 21.9378 1.93752L21.0003 2.87502L20.1816 2.06252C18.4253 0.306274 15.5753 0.306274 13.8191 2.06252L8.43781 7.43752C7.85031 8.02502 7.85031 8.97502 8.43781 9.55627C9.02531 10.1375 9.97531 10.1438 10.5566 9.55627L15.9378 4.18127C16.5253 3.59377 17.4753 3.59377 18.0566 4.18127L18.8816 5.00002L11.6441 12.2313L19.7691 20.3563L30.0628 10.0625C32.3066 7.81877 32.3066 4.18127 30.0628 1.94377V1.93752ZM18.3566 21.7688L10.2316 13.6438L6.21906 17.6563C3.21906 20.6563 1.16906 24.4813 0.337806 28.6438L0.0253057 30.2063C-0.0746944 30.7 0.0815557 31.2063 0.437806 31.5625C0.794056 31.9188 1.30031 32.0688 1.79406 31.975L3.35656 31.6625C7.51906 30.8313 11.3441 28.7813 14.3441 25.7813L18.3566 21.7688Z" fill="white"/>
</g>
<defs>
<clipPath id="clip0_1_1351">
<rect width="32" height="32" fill="white"/>
</clipPath>
</defs>
</svg>
