<svg width="32" height="32" viewBox="0 0 32 32" fill="none" xmlns="http://www.w3.org/2000/svg">
<path d="M6 6C6 3.79375 7.79375 2 10 2H28C30.2062 2 32 3.79375 32 6V26C32 28.2062 30.2062 30 28 30H5C2.2375 30 0 27.7625 0 25V8C0 6.89375 0.89375 6 2 6C3.10625 6 4 6.89375 4 8V25C4 25.55 4.45 26 5 26C5.55 26 6 25.55 6 25V6ZM10 7.5V12.5C10 13.3313 10.6687 14 11.5 14H26.5C27.3312 14 28 13.3313 28 12.5V7.5C28 6.66875 27.3312 6 26.5 6H11.5C10.6687 6 10 6.66875 10 7.5ZM10 19C10 19.55 10.45 20 11 20H17C17.55 20 18 19.55 18 19C18 18.45 17.55 18 17 18H11C10.45 18 10 18.45 10 19ZM20 19C20 19.55 20.45 20 21 20H27C27.55 20 28 19.55 28 19C28 18.45 27.55 18 27 18H21C20.45 18 20 18.45 20 19ZM10 25C10 25.55 10.45 26 11 26H17C17.55 26 18 25.55 18 25C18 24.45 17.55 24 17 24H11C10.45 24 10 24.45 10 25ZM20 25C20 25.55 20.45 26 21 26H27C27.55 26 28 25.55 28 25C28 24.45 27.55 24 27 24H21C20.45 24 20 24.45 20 25Z" fill="white"/>
</svg>
